<?xml version="1.0" encoding="utf-8"?>
<!-- Generator: Adobe Illustrator 19.2.1, SVG Export Plug-In . SVG Version: 6.00 Build 0)  -->
<svg version="1.1" id="Layer_2" xmlns="http://www.w3.org/2000/svg" xmlns:xlink="http://www.w3.org/1999/xlink" x="0px" y="0px"
	 viewBox="0 0 987.5 119.3" style="enable-background:new 0 0 987.5 119.3;" xml:space="preserve">
<style type="text/css">
	.st0{fill:#EB484D;}
	.st1{fill:#FFFFFF;}
</style>
<g>
	<path class="st0" d="M101.5,3c2.5,0.8,4.5,2.3,6,4.3c1.5,2.1,2.3,4.4,2.3,6.9v88.9c0,1.7-0.3,3.2-1,4.6c-0.6,1.4-1.5,2.7-2.5,3.8
		c-1.1,1.1-2.3,1.9-3.7,2.5c-1.4,0.6-3,0.9-4.6,0.9c-1.7,0-3.2-0.3-4.6-0.9c-1.4-0.6-2.7-1.4-3.8-2.5c-1.1-1.1-1.9-2.3-2.5-3.8
		c-0.6-1.4-0.9-3-0.9-4.6V50.6L67.4,76c-1.1,1.5-2.5,2.7-4.2,3.5c-1.7,0.9-3.5,1.3-5.4,1.3c-2,0-3.8-0.4-5.5-1.3
		c-1.7-0.9-3.1-2-4.1-3.5L29.6,50.6v52.6c0,1.7-0.3,3.2-1,4.6c-0.6,1.4-1.5,2.7-2.6,3.8c-1.1,1.1-2.3,1.9-3.8,2.5
		c-1.4,0.6-3,0.9-4.6,0.9c-1.6,0-3.2-0.3-4.6-0.9c-1.4-0.6-2.7-1.4-3.8-2.5c-1.1-1.1-1.9-2.3-2.5-3.8c-0.6-1.4-0.9-3-0.9-4.6V14.2
		c0-2.6,0.7-4.9,2.3-6.9c1.5-2.1,3.5-3.5,6-4.3c2.4-0.8,4.8-0.8,7.3-0.1c2.4,0.8,4.4,2.2,5.9,4.3L57.9,49L88.3,7.2
		c1.5-2.1,3.5-3.5,5.9-4.3C96.7,2.1,99.1,2.1,101.5,3z"/>
	<path class="st0" d="M217.1,101.5c0,1.5-0.3,3-0.8,4.4c-0.6,1.4-1.4,2.6-2.5,3.8c-1.1,1.1-2.4,2-3.9,2.6c-1.6,0.6-3,0.9-4.4,0.9
		c-2.3,0-4.5-0.6-6.4-1.9c-2-1.3-3.4-3-4.4-5.3l-7.3-17.7h-36.7l-7.3,17.7c-0.6,1.5-1.5,2.8-2.6,3.9c-1.1,1.1-2.4,1.9-3.8,2.5
		c-1.4,0.6-2.9,0.8-4.4,0.8c-1.5,0-3-0.3-4.4-0.9c-1.5-0.6-2.8-1.5-3.9-2.6c-1.1-1.1-1.9-2.4-2.5-3.8c-0.6-1.4-0.8-2.9-0.8-4.4
		c0-1.5,0.3-3.1,0.9-4.6l36.5-87.4c0.9-2.2,2.3-3.9,4.2-5.2c1.9-1.3,4.1-2,6.5-2c2.4,0,4.6,0.7,6.5,2c2,1.3,3.4,3.1,4.3,5.2
		L216.2,97C216.8,98.5,217.1,100,217.1,101.5z M169,44.4L160.5,65h17.2L169,44.4z"/>
	<path class="st0" d="M285.7,8.5c6.6,2.9,12.4,6.8,17.3,11.7c4.9,5,8.8,10.7,11.7,17.3c2.9,6.6,4.3,13.7,4.3,21.2
		c0,7.5-1.4,14.6-4.3,21.2c-2.9,6.6-6.7,12.4-11.7,17.3c-4.9,4.9-10.7,8.8-17.3,11.7c-6.6,2.9-13.7,4.3-21.2,4.3h-24.3
		c-1.6,0-3.1-0.3-4.4-0.9c-1.4-0.6-2.6-1.4-3.7-2.5c-1.1-1.1-1.9-2.3-2.5-3.7c-0.6-1.4-0.9-2.9-0.9-4.4V15.7c0-1.6,0.3-3.1,0.9-4.4
		c0.6-1.4,1.4-2.6,2.5-3.7c1.1-1.1,2.3-1.9,3.7-2.5c1.4-0.6,2.9-0.9,4.4-0.9h24.3C272,4.2,279.1,5.6,285.7,8.5z M296,58.7
		c0-4.4-0.8-8.4-2.5-12.3c-1.7-3.8-3.9-7.2-6.8-10c-2.9-2.9-6.2-5.1-10-6.8c-3.8-1.7-7.9-2.5-12.3-2.5h-12.9v62.9h12.9
		c4.4,0,8.4-0.8,12.3-2.5c3.8-1.7,7.2-3.9,10-6.8c2.9-2.9,5.1-6.2,6.8-10C295.2,67.1,296,63.1,296,58.7z"/>
	<path class="st1" d="M403,90.6c1.4,0.6,2.7,1.4,3.7,2.5c1.1,1.1,1.9,2.3,2.5,3.7c0.6,1.4,0.9,2.9,0.9,4.5c0,1.6-0.3,3.1-0.9,4.5
		c-0.6,1.4-1.4,2.7-2.5,3.7c-1.1,1.1-2.3,1.9-3.7,2.5c-1.4,0.6-2.9,0.9-4.5,0.9h-56.7c-1.6,0-3.1-0.3-4.5-0.9
		c-1.4-0.6-2.7-1.4-3.7-2.5c-1.1-1.1-1.9-2.3-2.5-3.7c-0.6-1.4-0.9-2.9-0.9-4.5V14c0-1.6,0.3-3.1,0.9-4.5c0.6-1.4,1.4-2.7,2.5-3.7
		c1.1-1.1,2.3-1.9,3.7-2.5c1.4-0.6,2.9-0.9,4.5-0.9c1.6,0,3.1,0.3,4.5,0.9c1.4,0.6,2.7,1.4,3.8,2.5c1.1,1.1,1.9,2.3,2.5,3.7
		c0.6,1.4,0.9,2.9,0.9,4.5v75.7h45C400.1,89.7,401.6,90,403,90.6z"/>
	<path class="st1" d="M444.2,70.1v20h43c1.6,0,3.1,0.3,4.4,0.9c1.4,0.6,2.6,1.4,3.7,2.5c1.1,1.1,1.9,2.3,2.5,3.7
		c0.6,1.4,0.9,2.9,0.9,4.4c0,1.6-0.3,3.1-0.9,4.4c-0.6,1.4-1.4,2.6-2.5,3.7c-1.1,1.1-2.3,1.9-3.7,2.5c-1.4,0.6-2.9,0.9-4.4,0.9
		h-54.4c-1.6,0-3.1-0.3-4.4-0.9c-1.4-0.6-2.6-1.4-3.7-2.5c-1.1-1.1-1.9-2.3-2.5-3.7c-0.6-1.4-0.9-2.9-0.9-4.4V15.7
		c0-1.6,0.3-3.1,0.9-4.4c0.6-1.4,1.4-2.6,2.5-3.7c1.1-1.1,2.3-1.9,3.7-2.5c1.4-0.6,2.9-0.9,4.4-0.9h54.4c1.6,0,3.1,0.3,4.4,0.9
		c1.4,0.6,2.6,1.4,3.7,2.5c1.1,1.1,1.9,2.3,2.5,3.7c0.6,1.4,0.9,2.9,0.9,4.4c0,1.6-0.3,3.1-0.9,4.4c-0.6,1.4-1.4,2.6-2.5,3.7
		c-1.1,1.1-2.3,1.9-3.7,2.5c-1.4,0.6-2.9,0.9-4.4,0.9h-43v20h43c1.6,0,3.1,0.3,4.4,0.9c1.4,0.6,2.6,1.4,3.7,2.4
		c1.1,1,1.9,2.2,2.5,3.7c0.6,1.4,0.9,2.9,0.9,4.5s-0.3,3.1-0.9,4.4c-0.6,1.4-1.4,2.6-2.5,3.6c-1.1,1-2.3,1.8-3.7,2.4
		c-1.4,0.6-2.9,0.9-4.4,0.9H444.2z"/>
	<path class="st1" d="M605.4,3c2.5,0.8,4.5,2.3,6,4.3c1.5,2.1,2.3,4.4,2.3,6.9v88.9c0,1.7-0.3,3.2-1,4.6c-0.6,1.4-1.5,2.7-2.5,3.8
		c-1.1,1.1-2.3,1.9-3.7,2.5c-1.4,0.6-3,0.9-4.6,0.9c-1.7,0-3.2-0.3-4.6-0.9c-1.4-0.6-2.7-1.4-3.8-2.5c-1.1-1.1-1.9-2.3-2.5-3.8
		c-0.6-1.4-0.9-3-0.9-4.6V50.6L571.4,76c-1.1,1.5-2.5,2.7-4.2,3.5c-1.7,0.9-3.5,1.3-5.4,1.3c-2,0-3.8-0.4-5.5-1.3
		c-1.7-0.9-3.1-2-4.1-3.5l-18.6-25.4v52.6c0,1.7-0.3,3.2-1,4.6c-0.6,1.4-1.5,2.7-2.6,3.8c-1.1,1.1-2.3,1.9-3.8,2.5
		c-1.4,0.6-3,0.9-4.6,0.9c-1.6,0-3.2-0.3-4.6-0.9c-1.4-0.6-2.7-1.4-3.8-2.5c-1.1-1.1-1.9-2.3-2.5-3.8c-0.6-1.4-0.9-3-0.9-4.6V14.2
		c0-2.6,0.7-4.9,2.3-6.9c1.5-2.1,3.5-3.5,6-4.3c2.4-0.8,4.8-0.8,7.3-0.1c2.4,0.8,4.4,2.2,5.9,4.3L561.9,49l30.4-41.8
		c1.5-2.1,3.5-3.5,5.9-4.3C600.6,2.1,603,2.1,605.4,3z"/>
	<path class="st1" d="M701.9,2.4c1.6,0,3.2,0.3,4.6,1c1.4,0.6,2.7,1.5,3.7,2.5c1,1.1,1.9,2.3,2.5,3.7c0.6,1.4,1,3,1,4.6v56.3
		c0,6.2-1.2,11.9-3.5,17.3c-2.3,5.4-5.5,10.1-9.5,14.1c-4,4-8.7,7.2-14.1,9.5c-5.4,2.3-11.1,3.5-17.2,3.5c-6.1,0-11.9-1.2-17.3-3.5
		c-5.4-2.3-10.1-5.5-14.1-9.5c-4-4-7.2-8.7-9.5-14.1c-2.3-5.4-3.5-11.2-3.5-17.3V14.2c0-1.7,0.3-3.2,0.9-4.6
		c0.6-1.4,1.4-2.7,2.5-3.7c1.1-1.1,2.3-1.9,3.8-2.5c1.4-0.6,3-1,4.6-1c1.6,0,3.2,0.3,4.7,1c1.5,0.6,2.7,1.5,3.8,2.5
		c1,1.1,1.9,2.3,2.5,3.7c0.6,1.4,1,3,1,4.6v56.4c0,2.9,0.5,5.5,1.6,8.1c1.1,2.5,2.6,4.7,4.5,6.6s4.1,3.4,6.6,4.5
		c2.5,1.1,5.2,1.6,8.1,1.6c2.9,0,5.6-0.5,8.1-1.6c2.5-1.1,4.7-2.6,6.5-4.5s3.3-4.1,4.4-6.6c1.1-2.5,1.6-5.2,1.6-8.1V14.2
		c0-1.7,0.3-3.2,1-4.6c0.6-1.4,1.5-2.7,2.5-3.7c1-1.1,2.3-1.9,3.8-2.5S700.2,2.4,701.9,2.4z"/>
	<path class="st1" d="M808.2,96c0.9,1.2,1.6,2.5,2,3.9c0.4,1.4,0.5,2.9,0.3,4.4c-0.2,1.5-0.7,3-1.4,4.4c-1.1,2-2.5,3.4-4.3,4.4
		c-1.8,1-3.8,1.5-5.8,1.5c-1.8,0-3.7-0.5-5.6-1.5l-45.2-25.2v15.1c0,1.6-0.3,3.1-0.9,4.4c-0.6,1.4-1.4,2.6-2.5,3.7
		c-1.1,1.1-2.3,1.9-3.7,2.5c-1.4,0.6-2.9,0.9-4.5,0.9c-1.6,0-3.1-0.3-4.5-0.9c-1.4-0.6-2.7-1.4-3.7-2.5c-1.1-1.1-1.9-2.3-2.5-3.7
		c-0.6-1.4-0.9-2.9-0.9-4.4V68.5v-0.3v-52c0-1.6,0.3-3.1,0.9-4.5c0.6-1.4,1.4-2.7,2.5-3.7c1.1-1.1,2.3-1.9,3.7-2.5
		c1.4-0.6,2.9-0.9,4.5-0.9h33.3c5.8,0,11.1,1,16.1,2.9c5,1.9,9.3,4.6,12.9,7.9c3.6,3.4,6.5,7.4,8.6,11.9c2.1,4.6,3.1,9.6,3.1,15
		c0,4.6-0.8,8.9-2.3,12.9c-1.5,4.1-3.7,7.7-6.4,10.9c-2.7,3.2-6,5.9-9.8,8.1c-3.8,2.2-8,3.8-12.6,4.8L804.6,93
		C806,93.8,807.2,94.8,808.2,96z M787.4,42.3c0-2.5-0.5-4.6-1.5-6.5c-1-1.8-2.3-3.4-3.9-4.6c-1.6-1.2-3.5-2.1-5.6-2.6
		c-2.1-0.6-4.2-0.8-6.4-0.8h-21.7v28.9h21.7c2.2,0,4.3-0.3,6.4-0.8c2.1-0.6,4-1.4,5.6-2.6c1.6-1.2,2.9-2.7,3.9-4.5
		C786.9,46.9,787.4,44.7,787.4,42.3z"/>
</g>
</svg>
